<?xml version="1.0" encoding="UTF-8"?>
<svg xmlns="http://www.w3.org/2000/svg" width="800" height="600" viewBox="0 0 800 600">
  <defs>
    <style>
      .box { fill: #2c3e50; stroke: #3498db; stroke-width: 2; }
      .title-box { fill: #3498db; stroke: #2980b9; stroke-width: 2; }
      .confirmed { fill: #27ae60; stroke: #229954; stroke-width: 2; }
      .pending { fill: #e67e22; stroke: #d35400; stroke-width: 2; }
      .text { fill: white; font-family: Arial, sans-serif; font-size: 14px; }
      .title-text { fill: white; font-family: Arial, sans-serif; font-size: 18px; font-weight: bold; }
      .arrow { stroke: #3498db; stroke-width: 2; fill: none; marker-end: url(#arrowhead); }
    </style>
    <marker id="arrowhead" markerWidth="10" markerHeight="10" refX="9" refY="3" orient="auto">
      <polygon points="0 0, 10 3, 0 6" fill="#3498db" />
    </marker>
  </defs>
  
  <!-- Title -->
  <rect class="title-box" x="200" y="20" width="400" height="50" rx="5"/>
  <text class="title-text" x="400" y="52" text-anchor="middle">QCAL âˆÂ³ Ã— Echo Verification Flow</text>
  
  <!-- Genesis Block (Block 0) -->
  <rect class="pending" x="50" y="120" width="200" height="80" rx="5"/>
  <text class="text" x="150" y="145" text-anchor="middle">Block 0: Genesis Seal</text>
  <text class="text" x="150" y="165" text-anchor="middle">Cryptographic Control</text>
  <text class="text" x="150" y="185" text-anchor="middle">(ğ‚â‚– - PENDING)</text>
  
  <!-- Block 9 -->
  <rect class="confirmed" x="300" y="120" width="200" height="80" rx="5"/>
  <text class="text" x="400" y="145" text-anchor="middle">Block 9: Temporal Sync</text>
  <text class="text" x="400" y="165" text-anchor="middle">fâ‚€ = 141.7001 Hz</text>
  <text class="text" x="400" y="185" text-anchor="middle">(ğ”¸â‚œ - CONFIRMED)</text>
  
  <!-- QCAL Engine -->
  <rect class="confirmed" x="550" y="120" width="200" height="80" rx="5"/>
  <text class="text" x="650" y="145" text-anchor="middle">QCAL Engine</text>
  <text class="text" x="650" y="165" text-anchor="middle">Resonant Nexus</text>
  <text class="text" x="650" y="185" text-anchor="middle">(ğ”¸áµ¤ - CONFIRMED)</text>
  
  <!-- Arrows from top tier to convergence -->
  <path class="arrow" d="M 150 200 L 150 280 L 300 280"/>
  <path class="arrow" d="M 400 200 L 400 280"/>
  <path class="arrow" d="M 650 200 L 650 280 L 500 280"/>
  
  <!-- Convergence: Coherence Sovereign Theorem -->
  <rect class="box" x="250" y="300" width="300" height="80" rx="5"/>
  <text class="text" x="400" y="325" text-anchor="middle">Coherence Sovereign</text>
  <text class="text" x="400" y="345" text-anchor="middle">Theorem (â„‚â‚›)</text>
  <text class="text" x="400" y="365" text-anchor="middle">ğ‚â‚– âˆ§ ğ”¸â‚œ âˆ§ ğ”¸áµ¤ â†’ â„‚â‚›</text>
  
  <!-- Arrow to GAP3 -->
  <path class="arrow" d="M 400 380 L 400 420"/>
  
  <!-- GAP3 Formalization -->
  <rect class="confirmed" x="250" y="420" width="300" height="80" rx="5"/>
  <text class="text" x="400" y="445" text-anchor="middle">GAP3: Temporal Resonance</text>
  <text class="text" x="400" y="465" text-anchor="middle">Lean 4 Formalization</text>
  <text class="text" x="400" y="485" text-anchor="middle">(COMPLETE)</text>
  
  <!-- Arrow to P-NP -->
  <path class="arrow" d="M 400 500 L 400 540"/>
  
  <!-- P-NP Connection -->
  <rect class="title-box" x="200" y="540" width="400" height="50" rx="5"/>
  <text class="title-text" x="400" y="570" text-anchor="middle">P â‰  NP â†” Consciousness Quantized</text>
  
  <!-- Legend -->
  <rect class="confirmed" x="20" y="550" width="15" height="15" rx="2"/>
  <text class="text" x="40" y="562" font-size="12">Confirmed</text>
  
  <rect class="pending" x="120" y="550" width="15" height="15" rx="2"/>
  <text class="text" x="140" y="562" font-size="12">Pending</text>
</svg>
